{"title":"Avalanche.Sharks.2013.DVDrip Xvid Ac3-MiLLENiUM (SilverTorrent)","uid":9759650,"size":1268952574,"categoryP":"video","categoryS":"movies","magnet":"?xt=urn:btih:2da40a4c54cdef89cf07c21fb8f959ff51a53e32&amp;dn=Avalanche.Sharks.2013.DVDrip+Xvid+Ac3-MiLLENiUM+%28SilverTorrent%29&amp;tr=udp%3A%2F%2Ftracker.openbittorrent.com%3A80&amp;tr=udp%3A%2F%2Fopen.demonii.com%3A1337&amp;tr=udp%3A%2F%2Ftracker.coppersurfer.tk%3A6969&amp;tr=udp%3A%2F%2Fexodus.desync.com%3A6969","seeders":1,"leechers":1,"uploader":"AliBaloch","files":4,"time":1394794250,"description":"SilverTorrent - Clean And Verified Torrents Download\n\n------------------------------------------------------\n\nAvalanche Sharks 2013 DVDrip Xvid Ac3-MiLLENiUM\n\n\n &lt;a href=&quot;\nhttp://www.imdb.com/title/tt2622826/&quot; rel=&quot;nofollow&quot; target=&quot;_NEW&quot;&gt;\nhttp://www.imdb.com/title/tt2622826/&lt;/a&gt;\n\nGeneral\nComplete name                            : Avalanche.Sharks.2013.DVDrip Xvid Ac3-MiLLENiUM.avi\nSource                                   : DVDR [thanks]\nFormat                                   : AVI\nFormat/Info                              : Audio Video Interleave\nFile size                                : 1.16 GiB\nDuration                                 : 1h 18mn\nOverall bit rate                         : 2 103 Kbps\n\nVideo\nID                                       : 0\nFormat                                   : MPEG-4 Visual\nFormat profile                           : Advanced Simple@L5\nFormat settings, BVOP                    : 2\nFormat settings, QPel                    : Yes\nFormat settings, GMC                     : No warppoints\nFormat settings, Matrix                  : Default (MPEG)\nCodec ID                                 : XVID\nCodec ID/Hint                            : XviD\nDuration                                 : 1h 18mn\nBit rate                                 : 1 711 Kbps\nWidth                                    : 720 pixels\nHeight                                   : 384 pixels\nDisplay aspect ratio                     : 1.85:1\nFrame rate                               : 25.000 fps\nColor space                              : YUV\nChroma subsampling                       : 4:2:0\nBit depth                                : 8 bits\nScan type                                : Progressive\nCompression mode                         : Lossy\nBits/(Pixel*Frame)                       : 0.248\nStream size                              : 963 MiB (81%)\nWriting library                          : XviD 1.2.1 (UTC 2008-12-04)\n\nAudio\nID                                       : 1\nFormat                                   : AC-3\nFormat/Info                              : Audio Coding 3\nMode extension                           : CM (complete main)\nFormat settings, Endianness              : Big\nCodec ID                                 : 2000\nDuration                                 : 1h 18mn\nBit rate mode                            : Constant\nBit rate                                 : 384 Kbps\nChannel(s)                               : 6 channels\nChannel positions                        : Front: L C R, Side: L R, LFE\nSampling rate                            : 48.0 KHz\nBit depth                                : 16 bits\nCompression mode                         : Lossy\nStream size                              : 216 MiB (18%)\nAlignment                                : Aligned on interleaves\nInterleave, duration                     : 64 ms (1.60 video frames)\nInterleave, preload duration             : 192 ms\nTitle                                    : VTS_01_1 T80 3_2ch 448Kbps DELAY 0ms_new\n\nScreens : &lt;a href=&quot;\nhttp://s7.postimg.org/looj0gbsr/Avalanche_Sharks_2013_DVDrip_Xvid_Ac3_Mi_LLENi_UM.png&quot; rel=&quot;nofollow&quot; target=&quot;_NEW&quot;&gt;\nhttp://s7.postimg.org/looj0gbsr/Avalanche_Sharks_2013_DVDrip_Xvid_Ac3_Mi_LLENi_UM.png&lt;/a&gt; &lt;a href=&quot;\nhttp://s7.postimg.org/bsng0t60r/Avalanche_Sharks_2013_DVDrip_Xvid_Ac3_Mi_LLENi_UM.png&quot; rel=&quot;nofollow&quot; target=&quot;_NEW&quot;&gt;\nhttp://s7.postimg.org/bsng0t60r/Avalanche_Sharks_2013_DVDrip_Xvid_Ac3_Mi_LLENi_UM.png&lt;/a&gt; &lt;a href=&quot;\nhttp://s7.postimg.org/4a4as6env/Avalanche_Sharks_2013_DVDrip_Xvid_Ac3_Mi_LLENi_UM.png&quot; rel=&quot;nofollow&quot; target=&quot;_NEW&quot;&gt;\nhttp://s7.postimg.org/4a4as6env/Avalanche_Sharks_2013_DVDrip_Xvid_Ac3_Mi_LLENi_UM.png&lt;/a&gt; &lt;a href=&quot;\nhttp://s7.postimg.org/ktxe0oekb/Avalanche_Sharks_2013_DVDrip_Xvid_Ac3_Mi_LLENi_UM.png&quot; rel=&quot;nofollow&quot; target=&quot;_NEW&quot;&gt;\nhttp://s7.postimg.org/ktxe0oekb/Avalanche_Sharks_2013_DVDrip_Xvid_Ac3_Mi_LLENi_UM.png&lt;/a&gt;\n\n------------------------------------------------------\nSilverTorrent - Clean And Verified Torrents Download\n\n","torrent":{"xt":"urn:btih:2da40a4c54cdef89cf07c21fb8f959ff51a53e32","amp;dn":"Avalanche.Sharks.2013.DVDrip+Xvid+Ac3-MiLLENiUM+%28SilverTorrent%29","amp;tr":["udp%3A%2F%2Ftracker.openbittorrent.com%3A80","udp%3A%2F%2Fopen.demonii.com%3A1337","udp%3A%2F%2Ftracker.coppersurfer.tk%3A6969","udp%3A%2F%2Fexodus.desync.com%3A6969"],"infoHash":"2da40a4c54cdef89cf07c21fb8f959ff51a53e32","infoHashBuffer":{"type":"Buffer","data":[45,164,10,76,84,205,239,137,207,7,194,31,184,249,89,255,81,165,62,50]},"announce":[],"urlList":[]}}